<svg xmlns="http://www.w3.org/2000/svg" xmlns:xlink="http://www.w3.org/1999/xlink" width="500" zoomAndPan="magnify" viewBox="0 0 375 374.999991" height="500" preserveAspectRatio="xMidYMid meet" version="1.0"><defs><g/><clipPath id="568f3f01ff"><path d="M 122 66.523438 L 253 66.523438 L 253 170 L 122 170 Z M 122 66.523438 " clip-rule="nonzero"/></clipPath><clipPath id="227029169e"><path d="M 121.980469 66.523438 L 253.230469 66.523438 L 253.230469 170.023438 L 121.980469 170.023438 Z M 121.980469 66.523438 " clip-rule="nonzero"/></clipPath></defs><rect x="-37.5" width="450" fill="#ffffff" y="-37.499999" height="449.999989" fill-opacity="1"/><rect x="-37.5" width="450" fill="#ffffff" y="-37.499999" height="449.999989" fill-opacity="1"/><rect x="-37.5" width="450" fill="#ffffff" y="-37.499999" height="449.999989" fill-opacity="1"/><g clip-path="url(#568f3f01ff)"><path fill="#3a405a" d="M 244.214844 70.617188 C 245.582031 70.1875 247.019531 69.863281 248.3125 69.289062 C 248.816406 69.074219 249.136719 68.320312 249.460938 67.78125 C 250 66.882812 250.824219 66.667969 251.542969 67.421875 C 252.261719 68.175781 252.875 69.003906 252.15625 70.117188 C 252.082031 70.222656 251.976562 70.367188 252.011719 70.472656 C 252.835938 73.203125 251.148438 75.574219 250.824219 78.125 C 250.46875 81.070312 249.890625 83.976562 249.351562 86.921875 C 248.996094 88.789062 248.492188 90.621094 248.132812 92.488281 C 247.738281 94.609375 247.484375 96.726562 247.089844 98.84375 C 246.730469 100.929688 246.191406 102.976562 245.832031 105.023438 C 245.511719 106.925781 245.222656 108.863281 245.078125 110.804688 C 244.753906 115.941406 244.503906 121.039062 244.253906 126.175781 C 244 131.632812 243.820312 137.09375 243.535156 142.550781 C 243.390625 145.207031 243.101562 147.902344 243.066406 150.558594 C 243.066406 151.277344 243.460938 152.175781 243.929688 152.75 C 244.753906 153.753906 244.863281 154.726562 244 155.585938 C 243.5 156.089844 243.03125 156.664062 242.457031 157.09375 C 242.242188 157.273438 241.773438 157.273438 241.488281 157.203125 C 238.683594 156.519531 235.882812 155.765625 233.082031 155.046875 C 229.742188 154.222656 226.363281 153.613281 223.058594 152.640625 C 219.289062 151.566406 215.589844 150.238281 211.851562 148.945312 C 209.335938 148.046875 206.824219 147.113281 204.378906 146.070312 C 201.832031 145.027344 199.242188 143.988281 196.800781 142.695312 C 194.503906 141.472656 193.75 141.582031 192.132812 143.554688 C 190.191406 145.925781 188.035156 148.117188 185.988281 150.414062 C 183.761719 152.964844 181.570312 155.550781 179.34375 158.101562 C 177.800781 159.859375 176.21875 161.546875 174.675781 163.273438 C 173.238281 164.886719 171.835938 166.539062 170.363281 168.121094 C 168.640625 170.023438 166.988281 169.699219 165.621094 167.582031 C 164.042969 165.066406 163.144531 162.304688 162.535156 159.429688 C 161.707031 155.804688 160.84375 152.175781 159.875 148.585938 C 159.371094 146.644531 158.617188 144.8125 158.042969 142.875 C 157.179688 140 156.320312 137.09375 155.492188 134.183594 C 155.207031 133.140625 155.027344 132.066406 154.703125 131.023438 C 153.839844 128.257812 152.976562 125.527344 152.007812 122.800781 C 151.792969 122.222656 151.289062 121.613281 150.75 121.328125 C 148.488281 120.105469 146.082031 119.027344 143.820312 117.808594 C 140.476562 115.976562 137.171875 114.144531 133.941406 112.132812 C 130.78125 110.15625 127.761719 108.003906 124.746094 105.847656 C 123.992188 105.308594 123.308594 104.628906 122.769531 103.875 C 122.195312 103.046875 122.769531 102.003906 123.738281 101.898438 C 124.347656 101.828125 124.960938 101.789062 125.570312 101.789062 C 126.683594 101.789062 127.367188 101.539062 127.007812 100.136719 C 126.9375 99.777344 127.582031 98.988281 128.050781 98.808594 C 131.640625 97.335938 135.234375 95.863281 138.898438 94.609375 C 142.8125 93.242188 146.835938 92.09375 150.824219 90.910156 C 155.347656 89.578125 159.875 88.25 164.4375 86.996094 C 169.464844 85.59375 174.566406 84.300781 179.59375 82.863281 C 182.578125 82.003906 185.558594 80.996094 188.503906 80.027344 C 193.570312 78.375 198.597656 76.6875 203.664062 75 C 205.601562 74.351562 207.503906 73.671875 209.445312 73.132812 C 210.234375 72.917969 211.097656 72.953125 211.925781 72.773438 C 215.230469 72.054688 218.496094 71.230469 221.800781 70.652344 C 226.078125 69.9375 230.316406 69.398438 234.519531 68.679688 C 237.355469 68.210938 240.121094 67.566406 242.960938 67.027344 C 243.640625 66.882812 244.394531 66.8125 245.078125 66.882812 C 245.511719 66.957031 246.191406 67.3125 246.265625 67.636719 C 246.371094 68.070312 246.121094 68.75 245.761719 69.109375 C 245.332031 69.613281 244.648438 69.898438 244.074219 70.257812 C 244.144531 70.402344 244.179688 70.511719 244.214844 70.617188 Z M 246.839844 76.113281 C 246.695312 76.039062 246.585938 76.003906 246.445312 75.933594 C 245.582031 76.578125 244.71875 77.226562 243.820312 77.871094 C 239.476562 81.105469 235.128906 84.300781 230.78125 87.570312 C 229.632812 88.429688 228.554688 89.402344 227.441406 90.335938 C 226.363281 91.230469 225.324219 92.164062 224.28125 93.0625 C 223.058594 94.105469 221.875 95.253906 220.546875 96.222656 C 217.203125 98.664062 213.828125 101.035156 210.414062 103.40625 C 207.9375 105.128906 205.421875 106.816406 202.871094 108.46875 C 202.296875 108.863281 201.398438 108.972656 201.113281 109.476562 C 199.855469 111.523438 197.554688 112.167969 195.796875 113.570312 C 193.351562 115.472656 190.875 117.304688 188.433594 119.242188 C 187.175781 120.25 186.0625 121.507812 184.769531 122.476562 C 182.757812 124.019531 180.671875 125.457031 178.554688 126.855469 C 176.792969 128.042969 174.960938 129.121094 173.203125 130.304688 C 172.914062 130.484375 172.804688 130.878906 172.589844 131.167969 C 172.984375 131.308594 173.488281 131.707031 173.777344 131.5625 C 175.320312 130.878906 176.867188 131.058594 178.410156 131.488281 C 180.421875 132.066406 182.433594 132.53125 184.410156 133.179688 C 186.203125 133.789062 187.855469 134.792969 189.6875 135.296875 C 192.023438 135.941406 194.464844 136.195312 196.800781 136.769531 C 198.382812 137.164062 199.925781 137.703125 201.433594 138.347656 C 202.765625 138.886719 203.984375 139.75 205.351562 140.253906 C 207.542969 141.042969 209.839844 141.617188 212.03125 142.40625 C 214.007812 143.089844 215.839844 144.167969 217.851562 144.5625 C 219.863281 144.992188 221.480469 146.179688 223.527344 146.539062 C 226.292969 147.003906 228.949219 148.046875 231.644531 148.765625 C 233.691406 149.300781 235.773438 149.734375 238.003906 150.238281 C 238.003906 149.804688 238.003906 149.375 238.003906 148.980469 C 237.964844 147.472656 237.824219 145.960938 237.894531 144.492188 C 238.183594 139.425781 238.578125 134.328125 238.863281 129.261719 C 239.1875 123.410156 239.152344 117.554688 239.761719 111.738281 C 240.265625 106.78125 241.378906 101.898438 242.277344 96.976562 C 242.886719 93.636719 243.605469 90.296875 244.359375 86.996094 C 245.042969 83.976562 245.796875 80.996094 246.480469 78.015625 C 246.695312 77.371094 246.730469 76.722656 246.839844 76.113281 Z M 129.558594 102.042969 C 130.742188 102.867188 131.675781 103.585938 132.648438 104.195312 C 134.910156 105.703125 137.171875 107.214844 139.507812 108.613281 C 142.488281 110.375 145.542969 111.953125 148.523438 113.675781 C 149.851562 114.429688 151.144531 115.328125 152.441406 116.15625 C 153.230469 116.65625 154.054688 116.585938 154.773438 116.121094 C 156.101562 115.257812 157.324219 114.289062 158.617188 113.355469 C 160.523438 111.988281 162.425781 110.625 164.363281 109.332031 C 166.734375 107.75 169.070312 106.171875 171.511719 104.664062 C 173.488281 103.441406 175.535156 102.328125 177.546875 101.179688 C 181.285156 99.097656 184.984375 96.90625 188.828125 94.929688 C 192.8125 92.882812 196.875 91.089844 200.933594 89.148438 C 204.453125 87.460938 207.972656 85.773438 211.492188 84.121094 C 212.140625 83.796875 212.929688 83.726562 213.578125 83.402344 C 215.589844 82.433594 217.527344 81.355469 219.574219 80.457031 C 222.125 79.34375 224.710938 78.375 227.261719 77.332031 C 230.996094 75.824219 234.734375 74.28125 238.46875 72.738281 C 238.757812 72.628906 239.007812 72.484375 239.257812 72.378906 C 238.863281 72.125 238.578125 72.125 238.253906 72.164062 C 234.878906 72.84375 231.535156 73.597656 228.160156 74.246094 C 224.710938 74.890625 221.226562 75.359375 217.777344 76.078125 C 215.445312 76.578125 213.144531 77.332031 210.808594 77.945312 C 208.980469 78.410156 207.109375 78.769531 205.316406 79.34375 C 202.726562 80.171875 200.214844 81.140625 197.664062 82.003906 C 194.324219 83.078125 190.945312 84.121094 187.605469 85.164062 C 182.144531 86.851562 176.6875 88.574219 171.191406 90.191406 C 166.988281 91.410156 162.75 92.488281 158.511719 93.675781 C 156.210938 94.320312 153.984375 95.144531 151.683594 95.792969 C 148.667969 96.65625 145.613281 97.300781 142.632812 98.234375 C 139.902344 99.0625 137.246094 100.210938 134.515625 101.070312 C 133.078125 101.574219 131.460938 101.71875 129.558594 102.042969 Z M 165.800781 153.179688 C 165.910156 152.785156 166.125 152.246094 166.195312 151.707031 C 166.734375 146.824219 167.203125 141.941406 167.8125 137.09375 C 168.171875 134.292969 168.746094 131.5625 169.25 128.796875 C 169.394531 128.078125 169.71875 127.683594 170.542969 127.933594 C 171.441406 128.1875 172.160156 127.898438 172.84375 127.289062 C 173.382812 126.785156 173.957031 126.320312 174.566406 125.851562 C 178.195312 123.121094 181.929688 120.464844 185.488281 117.628906 C 188.074219 115.542969 190.335938 113.101562 192.921875 111.054688 C 197.054688 107.75 201.328125 104.628906 205.601562 101.503906 C 209.15625 98.882812 212.894531 96.476562 216.414062 93.816406 C 218.460938 92.273438 220.222656 90.371094 222.160156 88.71875 C 224.496094 86.777344 226.902344 84.949219 229.238281 83.007812 C 230.027344 82.363281 230.710938 81.609375 231.429688 80.925781 C 231.070312 80.746094 230.855469 80.746094 230.675781 80.851562 C 227.476562 82.183594 224.246094 83.511719 221.046875 84.910156 C 218.460938 86.023438 215.910156 87.246094 213.359375 88.429688 C 208.761719 90.550781 204.128906 92.667969 199.566406 94.859375 C 197.414062 95.902344 195.363281 97.195312 193.210938 98.308594 C 190.875 99.492188 188.46875 100.535156 186.132812 101.71875 C 184.550781 102.507812 183.078125 103.441406 181.570312 104.375 C 178.085938 106.457031 174.636719 108.578125 171.152344 110.660156 C 170.039062 111.34375 168.855469 111.953125 167.742188 112.671875 C 164.6875 114.574219 161.707031 116.621094 158.582031 118.382812 C 156.140625 119.746094 155.746094 120.464844 156.820312 122.980469 C 157.503906 124.558594 158.222656 126.140625 158.691406 127.789062 C 160.019531 132.28125 161.238281 136.769531 162.496094 141.257812 C 163.648438 145.246094 164.761719 149.300781 165.800781 153.179688 Z M 170.003906 161.726562 C 170.796875 160.757812 171.371094 160.003906 171.980469 159.25 C 175.574219 155.011719 179.164062 150.773438 182.828125 146.574219 C 184.335938 144.847656 185.953125 143.234375 187.460938 141.507812 C 188.179688 140.683594 187.964844 140.324219 186.921875 139.929688 C 184.410156 138.960938 181.929688 137.847656 179.414062 136.875 C 177.296875 136.050781 175.140625 135.367188 172.878906 134.578125 C 171.945312 143.628906 171.011719 152.5 170.003906 161.726562 Z M 170.003906 161.726562 " fill-opacity="1" fill-rule="nonzero"/></g><g clip-path="url(#227029169e)"><path stroke-linecap="butt" transform="matrix(0.359206, 0, 0, 0.359126, 122.445757, 66.703721)" fill="none" stroke-linejoin="miter" d="M 338.994799 10.897208 C 342.800933 9.700725 346.802811 8.797925 350.402326 7.198989 C 351.805158 6.600748 352.696881 4.501465 353.599478 3.000423 C 355.100183 0.498687 357.394738 -0.0995542 359.395677 1.999729 C 361.396616 4.099012 363.103938 6.40496 361.103 9.504937 C 360.896381 9.79862 360.602765 10.201073 360.700637 10.494755 C 362.995192 18.097857 358.297335 24.700266 357.394738 31.803021 C 356.405143 40.004365 354.795692 48.096938 353.294988 56.298282 C 352.305393 61.497542 350.902561 66.598909 349.902091 71.798169 C 348.80375 77.704442 348.096896 83.599838 346.998555 89.495234 C 345.998085 95.303613 344.497381 101.00322 343.496911 106.702828 C 342.605189 111.999983 341.800463 117.395031 341.3981 122.800957 C 340.495503 137.104362 339.799524 151.298996 339.103545 165.6024 C 338.396692 180.797729 337.896457 196.003934 337.102606 211.199262 C 336.700244 218.5957 335.895518 226.100908 335.797646 233.497346 C 335.797646 235.498735 336.895988 238.000471 338.200948 239.599407 C 340.495503 242.394825 340.799994 245.103227 338.396692 247.496192 C 337.004734 248.899339 335.699774 250.498275 334.101198 251.694758 C 333.503091 252.195105 332.198131 252.195105 331.40428 251.999317 C 323.596268 250.095822 315.799131 247.996539 308.001994 245.99515 C 298.704152 243.700079 289.297564 242.003249 280.097595 239.294848 C 269.60354 236.303641 259.305229 232.605423 248.898171 229.005098 C 241.894885 226.503362 234.902473 223.903731 228.094931 220.999542 C 221.004647 218.095353 213.794742 215.20204 206.998074 211.601716 C 200.603769 208.197179 198.504958 208.501738 194.002845 213.994681 C 188.598135 220.597089 182.595318 226.69915 176.896992 233.094893 C 170.698431 240.197648 164.597742 247.398298 158.399181 254.501053 C 154.103687 259.395754 149.699447 264.094668 145.403953 268.902352 C 141.402075 273.3946 137.498069 277.995619 133.398319 282.400851 C 128.60259 287.698005 124.002605 286.795205 120.196471 280.899809 C 115.803105 273.894947 113.301932 266.204828 111.605483 258.199272 C 109.300054 248.10531 106.896752 238.000471 104.199834 228.004403 C 102.797002 222.598478 100.698191 217.497111 99.099615 212.102063 C 96.696313 204.096507 94.303886 196.003934 91.998456 187.900484 C 91.204605 184.996295 90.704371 182.005088 89.801773 179.100899 C 87.398471 171.399902 84.99517 163.7968 82.298252 156.204574 C 81.700145 154.594761 80.297313 152.897931 78.796609 152.103902 C 72.500176 148.699365 65.80138 145.697282 59.504947 142.303622 C 50.196231 137.202256 40.996262 132.100889 32.002911 126.499176 C 23.205304 120.995356 14.799185 115.002066 6.403941 108.997899 C 4.30513 107.496857 2.402064 105.60424 0.901359 103.504957 C -0.697217 101.199008 0.901359 98.294819 3.598277 98.001137 C 5.294725 97.805349 7.002048 97.696578 8.698497 97.696578 C 11.797777 97.696578 13.700844 97.000442 12.700374 93.095559 C 12.50463 92.094864 14.298951 89.897687 15.603911 89.39734 C 25.597731 85.296668 35.602426 81.195996 45.802865 77.704442 C 56.699283 73.897452 67.900191 70.699581 79.003227 67.403815 C 91.596093 63.694719 104.199834 59.996501 116.901447 56.504947 C 130.897145 52.600063 145.099462 48.999738 159.09516 44.99696 C 167.403407 42.603995 175.700779 39.7977 183.900279 37.100176 C 198.004723 32.499156 212.000422 27.800243 226.104866 23.10133 C 231.498702 21.295729 236.794665 19.403111 242.199376 17.902069 C 244.396059 17.303828 246.79936 17.401722 249.10479 16.901375 C 258.304759 14.899986 267.395982 12.604915 276.595952 10.995102 C 288.503714 9.00459 300.302729 7.503548 312.003872 5.502159 C 319.898881 4.196906 327.598146 2.402182 335.50403 0.90114 C 337.396222 0.498687 339.495033 0.302899 341.3981 0.498687 C 342.605189 0.705352 344.497381 1.69517 344.704 2.59797 C 344.997616 3.80533 344.301637 5.697948 343.301167 6.698642 C 342.104954 8.10179 340.201887 8.895819 338.603311 9.896514 C 338.799055 10.298967 338.896927 10.603526 338.994799 10.897208 Z M 346.302576 26.201307 C 345.900213 25.994642 345.595722 25.896748 345.204234 25.70096 C 342.800933 27.495684 340.397631 29.301285 337.896457 31.096009 C 325.803826 40.102259 313.70032 48.999738 301.596814 58.103883 C 298.399662 60.496848 295.398253 63.205249 292.298973 65.804879 C 289.297564 68.295739 286.404903 70.895369 283.501366 73.397105 C 280.097595 76.301295 276.80257 79.499166 273.105183 82.19669 C 263.796467 88.994887 254.400754 95.597295 244.896293 102.199703 C 238.001754 106.99651 230.998467 111.695423 223.897309 116.296443 C 222.298733 117.395031 219.797559 117.69959 219.003708 119.102738 C 215.502065 124.802346 209.096885 126.59707 204.203284 130.501954 C 197.395742 135.799108 190.501202 140.900475 183.704534 146.295523 C 180.202891 149.101819 177.103611 152.604249 173.504096 155.301773 C 167.903641 159.598234 162.096568 163.601011 156.202498 167.495018 C 151.298023 170.801661 146.197803 173.803744 141.304203 177.09951 C 140.499477 177.599857 140.194986 178.698446 139.59688 179.503352 C 140.695221 179.894928 142.098053 181.004394 142.902779 180.601941 C 147.198273 178.698446 151.504641 179.198793 155.800135 180.395275 C 161.40059 182.005088 167.001044 183.299465 172.503626 185.105066 C 177.495099 186.801896 182.095084 189.597314 187.195303 191.000462 C 193.698355 192.795185 200.495022 193.502198 206.998074 195.101134 C 211.402315 196.199722 215.697809 197.700764 219.895431 199.495488 C 223.603693 200.996529 226.996589 203.400372 230.802723 204.803519 C 236.903412 207.000696 243.297717 208.599632 249.398406 210.796809 C 254.900988 212.700304 260.001208 215.702388 265.601662 216.800976 C 271.202116 217.997459 275.704229 221.304101 281.402555 222.304796 C 289.10182 223.599172 296.496595 226.503362 304.000116 228.504751 C 309.698442 229.994915 315.49464 231.202275 321.704076 232.605423 C 321.704076 231.398063 321.704076 230.20158 321.704076 229.102992 C 321.595329 224.904426 321.203841 220.694983 321.399585 216.605188 C 322.204311 202.497571 323.302652 188.302937 324.096503 174.19532 C 324.999101 157.901404 324.901229 141.59661 326.597677 125.400587 C 328.000509 111.597529 331.099789 98.001137 333.600963 84.295973 C 335.297411 74.996041 337.29835 65.696108 339.397161 56.504947 C 341.300228 48.096938 343.399039 39.7977 345.302106 31.498462 C 345.900213 29.703738 345.998085 27.898137 346.302576 26.201307 Z M 19.801533 98.40359 C 23.096557 100.698661 25.695603 102.70005 28.403396 104.39688 C 34.699829 108.595446 40.996262 112.804889 47.499313 116.698896 C 55.796685 121.604474 64.300676 125.998828 72.598048 130.795636 C 76.295435 132.894919 79.89495 135.396655 83.50534 137.702603 C 85.702023 139.094874 87.996578 138.899086 89.997517 137.604709 C 93.694904 135.200867 97.098676 132.503343 100.698191 129.903712 C 106.005029 126.096722 111.300993 122.30061 116.694828 118.700285 C 123.295752 114.295054 129.798803 109.9007 136.595471 105.702134 C 142.098053 102.297597 147.79638 99.197619 153.396834 95.999748 C 163.803891 90.202246 174.102202 84.100185 184.802876 78.596366 C 195.895038 72.896758 207.204693 67.904162 218.503473 62.498237 C 228.301549 57.799324 238.099626 53.10041 247.897702 48.499391 C 249.702897 47.596591 251.89958 47.400803 253.704775 46.498002 C 259.305229 43.800478 264.699064 40.798394 270.397391 38.296658 C 277.498549 35.196681 284.69758 32.499156 291.798738 29.594967 C 302.194921 25.396401 312.601979 21.099941 322.998162 16.803481 C 323.802887 16.498922 324.498866 16.096469 325.194845 15.802786 C 324.096503 15.095774 323.302652 15.095774 322.400055 15.204545 C 313.004341 17.097163 303.695625 19.196446 294.299912 21.002047 C 284.69758 22.796771 274.997375 24.102024 265.395043 26.103413 C 258.902866 27.495684 252.497687 29.594967 245.994635 31.302674 C 240.90529 32.59705 235.696324 33.597745 230.704851 35.196681 C 223.494946 37.502629 216.502534 40.200153 209.401376 42.603995 C 200.103534 45.595202 190.696946 48.499391 181.399105 51.403581 C 166.196318 56.102494 151.004407 60.899301 135.703748 65.402426 C 124.002605 68.796086 112.20359 71.798169 100.404575 75.104812 C 93.999395 76.899536 87.800834 79.194607 81.395655 81.000208 C 73.000411 83.40405 64.49642 85.198774 56.199048 87.798404 C 48.597655 90.104352 41.20288 93.302224 33.601487 95.695189 C 29.599609 97.098336 25.097496 97.50079 19.801533 98.40359 Z M 120.696706 240.79589 C 121.001197 239.697301 121.599303 238.196259 121.795047 236.695218 C 123.295752 223.098825 124.600712 209.502433 126.29716 196.003934 C 127.29763 188.205043 128.896206 180.601941 130.299038 172.900944 C 130.701401 170.899555 131.603998 169.800966 133.898553 170.497102 C 136.399727 171.204114 138.400666 170.399208 140.303733 168.702378 C 141.804437 167.29923 143.403014 166.004854 145.099462 164.6996 C 155.202029 157.096497 165.598212 149.70006 175.505035 141.803275 C 182.704065 135.994896 189.000498 129.1967 196.199528 123.497092 C 207.704928 114.295054 219.601815 105.60424 231.498702 96.902548 C 241.39465 89.604005 251.801708 82.903703 261.599784 75.496388 C 267.29811 71.199928 272.202586 65.902774 277.596421 61.301754 C 284.099473 55.895829 290.798269 50.805339 297.30132 45.399414 C 299.498003 43.60469 301.40107 41.505407 303.402009 39.601912 C 302.40154 39.101565 301.803433 39.101565 301.303198 39.395247 C 292.396845 43.104343 283.403494 46.802561 274.497141 50.696568 C 267.29811 53.796546 260.196952 57.201082 253.095793 60.496848 C 240.296309 66.403121 227.398952 72.298517 214.697339 78.400578 C 208.705397 81.304767 202.996196 84.905092 197.004254 88.005069 C 190.501202 91.300835 183.802407 94.205024 177.299355 97.50079 C 172.895114 99.697967 168.795364 102.297597 164.597742 104.897227 C 154.897538 110.694729 145.295206 116.601002 135.595002 122.398504 C 132.495721 124.301999 129.200697 125.998828 126.101416 128.000217 C 117.597426 133.297372 109.300054 138.99698 100.600319 143.902558 C 93.803651 147.698671 92.70531 149.70006 95.695843 156.704921 C 97.59891 161.099275 99.599849 165.504506 100.90481 170.094649 C 104.602197 182.60333 107.995093 195.101134 111.496737 207.598938 C 114.704764 218.704471 117.804044 229.994915 120.696706 240.79589 Z M 132.397849 264.595015 C 134.605407 261.897491 136.203983 259.798208 137.900431 257.698925 C 147.905126 245.897256 157.898946 234.095587 168.099385 222.40269 C 172.297007 217.595005 176.79912 213.102757 180.996742 208.295073 C 182.997681 206.000002 182.399574 204.999307 179.496038 203.900719 C 172.503626 201.203195 165.598212 198.103217 158.594925 195.394816 C 152.700855 193.099745 146.698038 191.19625 140.401605 188.999073 C 137.802559 214.201346 135.203514 238.903272 132.397849 264.595015 Z M 132.397849 264.595015 " stroke="#f9ac85" stroke-width="1" stroke-opacity="1" stroke-miterlimit="10"/></g><g fill="#3a405a" fill-opacity="1"><g transform="translate(39.760487, 242.495156)"><g><path d="M 0.4375 -9.410156 C 2.554688 -1.621094 12.464844 0.625 18.945312 0.625 C 26.734375 0.625 37.640625 -2.117188 37.640625 -12.027344 C 37.640625 -21.9375 28.292969 -22.308594 19.628906 -23.121094 C 13.523438 -23.554688 8.289062 -24.054688 8.289062 -28.105469 C 8.289062 -32.46875 15.019531 -33.652344 18.382812 -33.652344 C 22.183594 -33.652344 27.792969 -33.152344 29.289062 -29.289062 C 29.789062 -28.167969 31.097656 -27.542969 32.46875 -27.542969 C 34.585938 -27.542969 36.703125 -29.289062 36.019531 -31.59375 C 33.089844 -38.449219 24.800781 -40.320312 18.320312 -40.320312 C 10.53125 -40.320312 0.808594 -36.703125 0.808594 -28.167969 C 0.808594 -18.695312 10.46875 -17.511719 18.945312 -16.824219 C 24.492188 -16.390625 30.160156 -15.890625 30.160156 -11.964844 C 30.160156 -7.042969 23.308594 -5.921875 18.945312 -5.921875 C 14.769531 -5.921875 9.035156 -6.855469 7.664062 -10.90625 C 7.351562 -12.527344 5.859375 -13.335938 4.238281 -13.335938 C 2.054688 -13.335938 -0.1875 -11.839844 0.4375 -9.410156 Z M 0.4375 -9.410156 "/></g></g></g><g fill="#3a405a" fill-opacity="1"><g transform="translate(86.243758, 242.495156)"><g><path d="M 32.28125 -39.695312 L 1.933594 -39.695312 C -0.5 -39.695312 -1.558594 -38.074219 -1.558594 -36.457031 C -1.558594 -34.898438 -0.5 -33.277344 1.933594 -33.277344 L 13.460938 -33.277344 L 13.460938 -3.304688 C 13.460938 -1.058594 15.332031 0 17.074219 0 C 18.695312 0 20.75 -1.058594 20.75 -3.304688 L 20.6875 -33.277344 L 32.28125 -33.277344 C 34.648438 -33.277344 35.957031 -34.898438 35.957031 -36.457031 C 35.957031 -38.074219 34.648438 -39.695312 32.28125 -39.695312 Z M 32.28125 -39.695312 "/></g></g></g><g fill="#3a405a" fill-opacity="1"><g transform="translate(129.175436, 242.495156)"><g><path d="M 42.0625 -19.816406 C 42.0625 -32.09375 33.964844 -40.320312 21.8125 -40.320312 C 9.597656 -40.320312 1.371094 -32.09375 1.371094 -19.816406 C 1.371094 -7.539062 9.597656 0.625 21.8125 0.625 C 33.964844 0.625 42.0625 -7.539062 42.0625 -19.816406 Z M 21.8125 -5.734375 C 13.960938 -5.734375 8.722656 -11.402344 8.722656 -19.816406 C 8.722656 -28.292969 13.960938 -33.964844 21.8125 -33.964844 C 29.601562 -33.964844 34.773438 -28.292969 34.773438 -19.816406 C 34.773438 -11.402344 29.601562 -5.734375 21.8125 -5.734375 Z M 21.8125 -5.734375 "/></g></g></g><g fill="#3a405a" fill-opacity="1"><g transform="translate(181.82725, 242.495156)"><g><path d="M 35.957031 -6.105469 L 28.480469 -13.960938 C 34.835938 -15.765625 37.953125 -20.378906 37.953125 -26.234375 C 37.953125 -33.714844 32.28125 -39.695312 21.125 -39.695312 L 7.230469 -39.695312 C 5.109375 -39.695312 3.613281 -38.386719 3.613281 -36.457031 L 3.613281 -3.179688 C 3.613281 -1.121094 5.359375 0 7.230469 0 C 8.972656 0 10.84375 -1.121094 10.84375 -3.242188 L 10.84375 -13.085938 L 20.253906 -13.085938 L 31.40625 -1.183594 C 34.523438 2.179688 39.757812 -2.117188 35.957031 -6.105469 Z M 10.84375 -19.132812 L 10.84375 -33.402344 L 21.1875 -33.402344 C 27.046875 -33.402344 30.597656 -30.285156 30.660156 -26.171875 C 30.785156 -22.371094 27.855469 -19.132812 21.1875 -19.132812 Z M 10.84375 -19.132812 "/></g></g></g><g fill="#3a405a" fill-opacity="1"><g transform="translate(228.995902, 242.495156)"><g><path d="M 2.804688 -36.332031 L 2.804688 -3.179688 C 2.804688 -0.996094 4.550781 0 6.417969 0 C 8.226562 0 10.09375 -1.058594 10.09375 -3.179688 L 10.09375 -36.332031 C 10.09375 -38.636719 8.226562 -39.695312 6.417969 -39.695312 C 4.550781 -39.695312 2.804688 -38.636719 2.804688 -36.332031 Z M 2.804688 -36.332031 "/></g></g></g><g fill="#3a405a" fill-opacity="1"><g transform="translate(248.935697, 242.495156)"><g><path d="M 32.46875 -6.230469 L 10.71875 -6.230469 L 10.71875 -16.578125 L 31.34375 -16.578125 C 33.527344 -16.578125 34.585938 -18.070312 34.585938 -19.566406 C 34.585938 -21.125 33.464844 -22.683594 31.34375 -22.683594 L 10.71875 -22.683594 L 10.71875 -33.589844 L 32.46875 -33.589844 C 34.585938 -33.589844 35.769531 -35.210938 35.769531 -36.703125 C 35.769531 -38.261719 34.710938 -39.695312 32.46875 -39.695312 L 7.726562 -39.695312 C 5.234375 -39.695312 3.613281 -38.015625 3.613281 -36.019531 L 3.613281 -3.738281 C 3.613281 -1.683594 5.234375 0 7.726562 0 L 32.46875 0 C 34.773438 0 35.894531 -1.496094 35.894531 -2.992188 C 35.894531 -4.550781 34.648438 -6.230469 32.46875 -6.230469 Z M 32.46875 -6.230469 "/></g></g></g><g fill="#3a405a" fill-opacity="1"><g transform="translate(294.982806, 242.495156)"><g><path d="M 0.4375 -9.410156 C 2.554688 -1.621094 12.464844 0.625 18.945312 0.625 C 26.734375 0.625 37.640625 -2.117188 37.640625 -12.027344 C 37.640625 -21.9375 28.292969 -22.308594 19.628906 -23.121094 C 13.523438 -23.554688 8.289062 -24.054688 8.289062 -28.105469 C 8.289062 -32.46875 15.019531 -33.652344 18.382812 -33.652344 C 22.183594 -33.652344 27.792969 -33.152344 29.289062 -29.289062 C 29.789062 -28.167969 31.097656 -27.542969 32.46875 -27.542969 C 34.585938 -27.542969 36.703125 -29.289062 36.019531 -31.59375 C 33.089844 -38.449219 24.800781 -40.320312 18.320312 -40.320312 C 10.53125 -40.320312 0.808594 -36.703125 0.808594 -28.167969 C 0.808594 -18.695312 10.46875 -17.511719 18.945312 -16.824219 C 24.492188 -16.390625 30.160156 -15.890625 30.160156 -11.964844 C 30.160156 -7.042969 23.308594 -5.921875 18.945312 -5.921875 C 14.769531 -5.921875 9.035156 -6.855469 7.664062 -10.90625 C 7.351562 -12.527344 5.859375 -13.335938 4.238281 -13.335938 C 2.054688 -13.335938 -0.1875 -11.839844 0.4375 -9.410156 Z M 0.4375 -9.410156 "/></g></g></g></svg>